# Blender v2.78 (sub 0) OBJ File: 'Myknight.blend'
# www.blender.org
mtllib Myknight.mtl
o Cube_Cube.001
v -0.372901 1.642368 1.024131
v -0.372901 3.422146 1.024131
v -0.372901 1.642368 -0.975869
v -0.372901 3.422146 -0.975869
v 0.406878 1.642368 1.024131
v 0.406878 3.422146 1.024131
v 0.406878 1.642368 -0.975869
v 0.406878 3.422146 -0.975869
v -0.744003 0.518593 -0.736860
v -0.744003 0.518593 0.785122
v 0.777979 0.518593 -0.736860
v 0.777979 0.518593 0.785122
v -0.983012 0.518593 -0.975869
v -0.983012 0.518593 1.024131
v 1.016988 0.518593 -0.975869
v 1.016988 0.518593 1.024131
v -0.744003 0.116878 -0.736860
v -0.744003 0.116878 0.785122
v 0.777979 0.116878 -0.736860
v 0.777979 0.116878 0.785122
v -0.983012 5.092717 1.024131
v -0.983012 5.092717 -0.975869
v 1.016988 5.092717 -0.975869
v 1.016988 5.092717 1.024131
v -0.983012 0.518593 1.024131
v -0.983012 3.518593 1.024131
v -0.983012 3.518593 -0.975869
v -0.983012 0.518593 -0.975869
v 1.016988 0.518593 -0.975869
v 1.016988 3.518593 -0.975869
v 1.016988 3.518593 1.024131
v 1.016988 0.518593 1.024131
v -0.372901 3.422146 -1.975869
v -0.372901 1.642368 -1.975869
v 0.406878 1.642368 -1.975869
v 0.406878 3.422146 -1.975869
v -0.372901 1.642368 2.024131
v -0.372901 3.422146 2.024131
v 0.406878 3.422146 2.024131
v 0.406878 1.642368 2.024131
vt 0.2729 0.3819
vt 0.1093 0.5455
vt 0.0002 0.4365
vt 0.1638 0.2729
vt 0.2149 0.7433
vt 0.2149 0.6832
vt 0.2921 0.6832
vt 0.2921 0.7433
vt 0.2729 0.1638
vt 0.4365 0.0002
vt 0.5455 0.1093
vt 0.3819 0.2729
vt 0.2146 0.6061
vt 0.2146 0.7433
vt 0.1375 0.7433
vt 0.1375 0.6061
vt 0.2725 0.3776
vt 0.3776 0.2733
vt 0.5459 0.1544
vt 0.5459 0.0002
vt 0.6673 0.0002
vt 0.6673 0.1544
vt 0.9627 0.1585
vt 0.9256 0.2698
vt 0.8962 0.2600
vt 0.9333 0.1487
vt 0.2733 0.1681
vt 0.1681 0.2725
vt 0.1961 0.2732
vt 0.2732 0.3496
vt 0.2725 0.1961
vt 0.3496 0.2725
vt 0.8591 0.0002
vt 0.9704 0.0373
vt 0.8219 0.1115
vt 0.8885 0.3812
vt 0.8513 0.4925
vt 0.8219 0.4827
vt 0.8591 0.3714
vt 0.9998 0.0471
vt 0.8216 0.6172
vt 0.6673 0.6172
vt 0.6673 0.4629
vt 0.8216 0.4629
vt 0.5459 0.3087
vt 0.6673 0.3087
vt 0.5459 0.6172
vt 0.5459 0.4629
vt 0.3674 0.4100
vt 0.4645 0.5070
vt 0.4365 0.5455
vt 0.0387 0.0812
vt 0.1358 0.1783
vt 0.0002 0.1093
vt 0.1783 0.1358
vt 0.0812 0.0387
vt 0.1093 0.0002
vt 0.5070 0.4645
vt 0.4100 0.3674
vt 0.5455 0.4365
vt 0.2921 0.8806
vt 0.4293 0.8806
vt 0.4293 0.9407
vt 0.2921 0.9407
vt 0.2149 0.8806
vt 0.2149 0.5459
vt 0.2921 0.5459
vt 0.2149 0.9407
vt 0.0002 0.6061
vt 0.0002 0.5459
vt 0.1375 0.5459
vt 0.2146 0.5459
vt 0.2146 0.8035
vt 0.2146 0.9407
vt 0.1375 0.9407
vt 0.1375 0.8035
vn -1.0000 0.0000 0.0000
vn 0.0000 1.0000 0.0000
vn 1.0000 0.0000 0.0000
vn 0.0000 0.0000 1.0000
vn 0.0000 0.0000 -1.0000
vn 0.0000 -1.0000 0.0000
usemtl None
s off
f 25/1/1 26/2/1 27/3/1 28/4/1
f 4/5/2 8/6/2 36/7/2 33/8/2
f 29/9/3 30/10/3 31/11/3 32/12/3
f 5/13/3 6/14/3 39/15/3 40/16/3
f 32/12/4 25/1/4 14/17/4 16/18/4
f 30/19/5 27/20/5 22/21/5 23/22/5
f 12/23/4 10/24/4 18/25/4 20/26/4
f 28/4/4 29/9/4 15/27/4 13/28/4
f 25/1/4 28/4/4 13/28/4 14/17/4
f 29/9/4 32/12/4 16/18/4 15/27/4
f 9/29/6 10/30/6 14/17/6 13/28/6
f 11/31/6 9/29/6 13/28/6 15/27/6
f 12/32/6 11/31/6 15/27/6 16/18/6
f 10/30/6 12/32/6 16/18/6 14/17/6
f 17/33/6 19/34/6 20/26/6 18/35/6
f 9/36/5 11/37/5 19/38/5 17/39/5
f 11/40/3 12/23/3 20/26/3 19/34/3
f 10/24/1 9/36/1 17/39/1 18/25/1
f 23/41/2 22/42/2 21/43/2 24/44/2
f 31/45/3 30/19/3 23/22/3 24/46/3
f 27/47/1 26/48/1 21/43/1 22/42/1
f 26/48/4 31/45/4 24/46/4 21/43/4
f 1/49/4 2/50/4 26/51/4 25/1/4
f 4/52/5 3/53/5 28/4/5 27/54/5
f 3/53/5 7/55/5 29/9/5 28/4/5
f 8/56/5 4/52/5 27/54/5 30/57/5
f 7/55/5 8/56/5 30/57/5 29/9/5
f 6/58/4 5/59/4 32/12/4 31/60/4
f 5/59/4 1/49/4 25/1/4 32/12/4
f 2/50/4 6/58/4 31/60/4 26/51/4
f 34/61/5 33/62/5 36/63/5 35/64/5
f 3/65/1 4/5/1 33/8/1 34/61/1
f 8/6/3 7/66/3 35/67/3 36/7/3
f 7/68/6 3/65/6 34/61/6 35/64/6
f 40/16/4 39/69/4 38/70/4 37/71/4
f 1/72/6 5/13/6 40/16/6 37/71/6
f 2/73/1 1/74/1 37/75/1 38/76/1
f 6/14/2 2/73/2 38/76/2 39/15/2
