# Blender v2.78 (sub 0) OBJ File: 'Myknight.blend'
# www.blender.org
mtllib Myknight.mtl
o Cube_Cube.001
v -0.372901 1.642368 1.024131
v -0.372901 3.422146 1.024131
v -0.372901 1.642368 -0.975869
v -0.372901 3.422146 -0.975869
v 0.406878 1.642368 1.024131
v 0.406878 3.422146 1.024131
v 0.406878 1.642368 -0.975869
v 0.406878 3.422146 -0.975869
v -0.744003 0.518593 -0.736860
v -0.744003 0.518593 0.785122
v 0.777979 0.518593 -0.736860
v 0.777979 0.518593 0.785122
v -0.983012 0.518593 -0.975869
v -0.983012 0.518593 1.024131
v 1.016988 0.518593 -0.975869
v 1.016988 0.518593 1.024131
v -0.744003 0.116878 -0.736860
v -0.744003 0.116878 0.785122
v 0.777979 0.116878 -0.736860
v 0.777979 0.116878 0.785122
v -0.983012 5.092717 1.024131
v -0.983012 5.092717 -0.975869
v 1.016988 5.092717 -0.975869
v 1.016988 5.092717 1.024131
v -0.983012 0.518593 1.024131
v -0.983012 3.518593 1.024131
v -0.983012 3.518593 -0.975869
v -0.983012 0.518593 -0.975869
v 1.016988 0.518593 -0.975869
v 1.016988 3.518593 -0.975869
v 1.016988 3.518593 1.024131
v 1.016988 0.518593 1.024131
v -0.372901 3.422146 -1.975869
v -0.372901 1.642368 -1.975869
v 0.406878 1.642368 -1.975869
v 0.406878 3.422146 -1.975869
v -0.372901 1.642368 2.024131
v -0.372901 3.422146 2.024131
v 0.406878 3.422146 2.024131
v 0.406878 1.642368 2.024131
vt 0.4120 0.3980
vt 0.4120 0.6294
vt 0.2577 0.6294
vt 0.2577 0.3980
vt 0.2162 0.9863
vt 0.1560 0.9863
vt 0.1560 0.9092
vt 0.2162 0.9092
vt 0.2577 0.2438
vt 0.2577 0.0124
vt 0.4120 0.0124
vt 0.4120 0.2438
vt 0.7103 0.9894
vt 0.5731 0.9894
vt 0.5731 0.9122
vt 0.7103 0.9122
vt 0.4086 0.3953
vt 0.4092 0.2472
vt 0.7071 0.1885
vt 0.7071 0.0343
vt 0.8285 0.0343
vt 0.8285 0.1885
vt 0.9885 0.1263
vt 0.9885 0.2437
vt 0.9575 0.2437
vt 0.9575 0.1263
vt 0.2611 0.2466
vt 0.2605 0.3947
vt 0.2809 0.3754
vt 0.3894 0.3749
vt 0.2804 0.2669
vt 0.3889 0.2664
vt 0.8401 0.0089
vt 0.9575 0.0089
vt 0.8401 0.1263
vt 0.9885 0.3611
vt 0.9885 0.4785
vt 0.9576 0.4785
vt 0.9575 0.3611
vt 0.9885 0.0089
vt 0.9828 0.6513
vt 0.8285 0.6513
vt 0.8285 0.4970
vt 0.9828 0.4970
vt 0.7071 0.3428
vt 0.8285 0.3428
vt 0.7071 0.6513
vt 0.7071 0.4970
vt 0.4987 0.3510
vt 0.6359 0.3510
vt 0.6434 0.3980
vt 0.0338 0.3510
vt 0.1711 0.3510
vt 0.0264 0.3980
vt 0.1711 0.2908
vt 0.0338 0.2908
vt 0.0264 0.2438
vt 0.6359 0.2908
vt 0.4987 0.2908
vt 0.6434 0.2438
vt 0.2162 0.7719
vt 0.1560 0.7719
vt 0.3534 0.9863
vt 0.3534 0.9092
vt 0.0188 0.9863
vt 0.0188 0.9092
vt 0.1560 0.6948
vt 0.2162 0.6948
vt 0.5731 0.7750
vt 0.5129 0.9122
vt 0.5129 0.7750
vt 0.5129 0.6978
vt 0.5731 0.6978
vt 0.5129 0.9894
vt 0.3757 0.9894
vt 0.3757 0.9122
vn -1.0000 0.0000 0.0000
vn 0.0000 1.0000 0.0000
vn 1.0000 0.0000 0.0000
vn 0.0000 0.0000 1.0000
vn 0.0000 0.0000 -1.0000
vn 0.0000 -1.0000 0.0000
usemtl Material.001
s off
f 25/1/1 26/2/1 27/3/1 28/4/1
f 4/5/2 8/6/2 36/7/2 33/8/2
f 29/9/3 30/10/3 31/11/3 32/12/3
f 5/13/3 6/14/3 39/15/3 40/16/3
f 32/12/4 25/1/4 14/17/4 16/18/4
f 30/19/5 27/20/5 22/21/5 23/22/5
f 12/23/4 10/24/4 18/25/4 20/26/4
f 28/4/4 29/9/4 15/27/4 13/28/4
f 25/1/4 28/4/4 13/28/4 14/17/4
f 29/9/4 32/12/4 16/18/4 15/27/4
f 9/29/6 10/30/6 14/17/6 13/28/6
f 11/31/6 9/29/6 13/28/6 15/27/6
f 12/32/6 11/31/6 15/27/6 16/18/6
f 10/30/6 12/32/6 16/18/6 14/17/6
f 17/33/6 19/34/6 20/26/6 18/35/6
f 9/36/5 11/37/5 19/38/5 17/39/5
f 11/40/3 12/23/3 20/26/3 19/34/3
f 10/24/1 9/36/1 17/39/1 18/25/1
f 23/41/2 22/42/2 21/43/2 24/44/2
f 31/45/3 30/19/3 23/22/3 24/46/3
f 27/47/1 26/48/1 21/43/1 22/42/1
f 26/48/4 31/45/4 24/46/4 21/43/4
f 1/49/4 2/50/4 26/51/4 25/1/4
f 4/52/5 3/53/5 28/4/5 27/54/5
f 3/53/5 7/55/5 29/9/5 28/4/5
f 8/56/5 4/52/5 27/54/5 30/57/5
f 7/55/5 8/56/5 30/57/5 29/9/5
f 6/58/4 5/59/4 32/12/4 31/60/4
f 5/59/4 1/49/4 25/1/4 32/12/4
f 2/50/4 6/58/4 31/60/4 26/51/4
f 34/61/5 33/8/5 36/7/5 35/62/5
f 3/63/1 4/5/1 33/8/1 34/64/1
f 8/6/3 7/65/3 35/66/3 36/7/3
f 7/67/6 3/68/6 34/61/6 35/62/6
f 40/69/4 39/15/4 38/70/4 37/71/4
f 1/72/6 5/73/6 40/69/6 37/71/6
f 2/74/1 1/75/1 37/76/1 38/70/1
f 6/14/2 2/74/2 38/70/2 39/15/2
